#!OML:ASF F:\VICON\USERDATA\INSTALL\SteveWalk\SteveWalk.ASF
:FULLY-SPECIFIED
:DEGREES
216
root -0.120248 16.3089 0.852777 15.9515 1.53923 2.0487
lowerback -13.2343 -2.31181 -3.12112
upperback -4.5742 -2.68204 0.568534
thorax 2.76992 -1.32057 1.93753
lowerneck -5.44521 0.312217 0.304758
upperneck 8.29108 0.416858 -0.29557
head 3.65019 0.202894 -0.130701
rclavicle 8.54153e-016 -6.95746e-015
rhumerus -75.7343 -40.4952 -24.5797
rradius 10.6685
rwrist 51.16
rhand -15.0129 -36.2973
rfingers 7.12502
rthumb 11.1523 -65.9809
lclavicle 8.54153e-016 -6.95746e-015
lhumerus -20.9116 -2.24313 83.2942
lradius 36.1912
lwrist 7.31432
lhand -20.6005 -16.1518
lfingers 7.12502
lthumb 5.7601 13.7499
rfemur -48.1334 -5.74702 22.9614
rtibia 36.6192
rfoot -13.8021 -5.82063
rtoes -14.6653
lfemur -14.6551 6.69917 -24.4598
ltibia 28.8732
lfoot -26.4934 -6.61802
ltoes -7.53867
217
root -0.122654 16.3021 1.0734 15.9649 1.87902 2.05019
lowerback -13.4443 -2.41911 -3.08684
upperback -4.38183 -2.82181 0.657778
thorax 3.09618 -1.39591 1.977
lowerneck -5.62241 0.295085 0.370515
upperneck 8.12272 0.396363 -0.399386
head 3.62635 0.190306 -0.177228
rclavicle 2.72273e-014 -6.36111e-015
rhumerus -78.4451 -40.44 -20.9162
rradius 10.766
rwrist 52.5856
rhand -16.1333 -35.1127
rfingers 7.12502
rthumb 10.0716 -64.8517
lclavicle 2.72273e-014 -6.36111e-015
lhumerus -19.6136 -3.28491 83.1838
lradius 37.2758
lwrist 8.2496
lhand -21.0093 -16.8375
lfingers 7.12502
lthumb 5.36533 13.0746
rfemur -47.8871 -5.55356 22.7249
rtibia 33.3274
rfoot -13.6663 -5.17468
rtoes -14.8219
lfemur -13.3075 7.06567 -24.1768
ltibia 27.866
lfoot -26.3949 -7.9246
ltoes -5.83656
218
root -0.122169 16.2864 1.30014 15.8867 2.21113 2.30321
lowerback -13.5861 -2.50378 -3.23086
upperback -4.21178 -2.9055 0.616382
thorax 3.36068 -1.44256 1.9916
lowerneck -5.78293 0.188927 0.437245
upperneck 8.08264 0.253001 -0.465151
head 3.64345 0.11846 -0.217594
rclavicle 1.44771e-014 -3.37934e-015
rhumerus -80.7651 -40.1482 -17.9395
rradius 10.9593
rwrist 52.8734
rhand -16.8086 -34.3105
rfingers 7.12502
rthumb 9.42006 -64.08
lclavicle 1.44771e-014 -3.37934e-015
lhumerus -18.5074 -4.31385 82.9925
lradius 38.482
lwrist 8.96582
lhand -20.9321 -17.0644
lfingers 7.12502
lthumb 5.4399 12.8458
rfemur -47.6983 -5.56607 22.2655
rtibia 30.1935
rfoot -13.8135 -4.46885
rtoes -13.6544
lfemur -11.7888 7.25931 -24.1378
ltibia 26.8121
lfoot -26.1917 -9.33613
ltoes -2.95746
219
root -0.125616 16.2519 1.51388 15.9231 2.5379 2.73134
lowerback -13.5603 -2.61544 -3.55524
upperback -4.25762 -3.00663 0.51397
thorax 3.31447 -1.49165 2.05194
lowerneck -5.53762 0.11948 0.566318
upperneck 7.94223 0.155315 -0.541152
head 3.54623 0.0711472 -0.269678
rclavicle -5.36563e-014 -1.92821e-014
rhumerus -83.8801 -39.7255 -13.692
rradius 10.9649
rwrist 54.3681
rhand -16.6344 -34.7341
rfingers 7.12502
rthumb 9.58815 -64.4959
lclavicle -5.36563e-014 -1.92821e-014
lhumerus -17.7392 -5.16306 82.7168
lradius 39.8193
lwrist 9.71434
lhand -21.0342 -17.346
lfingers 7.12502
lthumb 5.34136 12.5667
rfemur -47.9188 -5.62387 21.6688
rtibia 27.4192
rfoot -13.968 -4.00571
rtoes -15.1097
lfemur -10.3557 7.21769 -24.3386
ltibia 25.6029
lfoot -26.1832 -9.24873
ltoes -6.19918
